<?xml version="1.0" encoding="UTF-8" standalone="no"?>
<!-- Created with Inkscape (http://www.inkscape.org/) -->

<svg
   width="270.93332"
   height="270.93332"
   viewBox="0 0 270.93332 270.93332"
   version="1.1"
   id="svg1"
   xml:space="preserve"
   inkscape:version="1.4 (86a8ad7, 2024-10-11)"
   sodipodi:docname="logo.svg"
   inkscape:export-filename="..\..\Dev\logo.png"
   inkscape:export-xdpi="362.83466"
   inkscape:export-ydpi="362.83466"
   xmlns:inkscape="http://www.inkscape.org/namespaces/inkscape"
   xmlns:sodipodi="http://sodipodi.sourceforge.net/DTD/sodipodi-0.dtd"
   xmlns="http://www.w3.org/2000/svg"
   xmlns:svg="http://www.w3.org/2000/svg"><sodipodi:namedview
     id="namedview1"
     pagecolor="#ffffff"
     bordercolor="#000000"
     borderopacity="0.25"
     inkscape:showpageshadow="2"
     inkscape:pageopacity="0.0"
     inkscape:pagecheckerboard="0"
     inkscape:deskcolor="#d1d1d1"
     inkscape:document-units="mm"
     inkscape:zoom="2.0792509"
     inkscape:cx="195.98405"
     inkscape:cy="97.871789"
     inkscape:window-width="5120"
     inkscape:window-height="1369"
     inkscape:window-x="2552"
     inkscape:window-y="-8"
     inkscape:window-maximized="1"
     inkscape:current-layer="layer1" /><defs
     id="defs1"><marker
       style="overflow:visible"
       id="Square"
       refX="0"
       refY="0"
       orient="auto"
       inkscape:stockid="Square"
       markerWidth="0.2"
       markerHeight="0.2"
       viewBox="0 0 1 1"
       inkscape:isstock="true"
       inkscape:collect="always"
       preserveAspectRatio="xMidYMid"><path
         transform="scale(0.5)"
         style="fill:context-stroke;fill-rule:evenodd;stroke:none"
         d="M -5,-5 V 5 H 5 V -5 Z"
         id="path18" /></marker><marker
       style="overflow:visible"
       id="ArrowWideHeavy"
       refX="-1"
       refY="0"
       orient="auto-start-reverse"
       inkscape:stockid="Wide, heavy arrow"
       markerWidth="0.6"
       markerHeight="0.6"
       viewBox="0 0 1 1"
       inkscape:isstock="true"
       inkscape:collect="always"
       preserveAspectRatio="xMidYMid"><path
         style="fill:context-stroke;fill-rule:evenodd;stroke:none"
         d="m 1,0 -3,3 h -2 l 3,-3 -3,-3 h 2 z"
         id="path10" /></marker></defs><g
     inkscape:label="Layer 1"
     inkscape:groupmode="layer"
     id="layer1"
     transform="translate(-103.18751,-2.1166737)"><rect
       style="fill:#fbb78f;fill-opacity:1;stroke:none;stroke-width:7.14727;stroke-linecap:butt;stroke-dasharray:none;stroke-dashoffset:0;stroke-opacity:1;paint-order:markers fill stroke"
       id="rect21"
       width="113.92601"
       height="113.92601"
       x="181.74547"
       y="52.61821"
       rx="0"
       ry="29.148954" /><g
       id="g21"
       transform="matrix(0.87484661,0,0,0.87484661,-189.16301,8.9089323)"
       style="stroke:#030203;stroke-opacity:1"><path
         id="path2"
         style="fill:none;stroke:#030203;stroke-width:10.4494;stroke-opacity:1;paint-order:markers fill stroke"
         d="m 477.61927,127.88312 a 2.3025272,2.3025272 0 0 1 -2.30253,2.30252 2.3025272,2.3025272 0 0 1 -2.30253,-2.30252 2.3025272,2.3025272 0 0 1 2.30253,-2.30253 2.3025272,2.3025272 0 0 1 2.30253,2.30253 z" /><path
         style="fill:#030203;fill-opacity:1;stroke:#030203;stroke-opacity:1;paint-order:markers fill stroke"
         d="m 468.79297,126.17188 c -13.09433,4e-5 -24.28906,-11.19278 -24.28906,-24.28711 -2e-5,-13.094346 11.19472,-24.28908 24.28906,-24.289067 13.09431,3.6e-5 24.28711,11.194753 24.28711,24.289067 0,6.30952 -2.59877,12.17754 -6.75681,16.56458 l 4.25471,3.32387 c 4.86667,-5.30881 7.88101,-12.32564 7.881,-19.88845 -2e-5,-16.06481 -13.60121,-29.666036 -29.66601,-29.66602 -16.06477,4.4e-5 -29.66797,13.60125 -29.66797,29.66602 -2e-5,16.06477 13.60319,29.66599 29.66797,29.66601 z"
         id="circle3"
         sodipodi:nodetypes="csssccssscc" /><path
         style="fill:none;stroke:#030203;stroke-width:7.83;stroke-linecap:round;stroke-dasharray:none;stroke-opacity:1;paint-order:markers fill stroke"
         d="M 467.69024,103.51476 V 87.192114"
         id="path3"
         sodipodi:nodetypes="cc" /><path
         style="fill:none;stroke:#030203;stroke-width:7.83;stroke-linecap:round;stroke-dasharray:none;stroke-opacity:1;paint-order:markers fill stroke"
         d="m 468.11061,104.48387 7.98876,8.31986"
         id="path4"
         sodipodi:nodetypes="cc" /><path
         style="fill:none;stroke:#030203;stroke-width:7.83;stroke-linecap:round;stroke-dasharray:none;stroke-opacity:1;marker-end:url(#Square);paint-order:markers fill stroke"
         d="m 448.71651,154.01467 20,-20"
         id="path5"
         sodipodi:nodetypes="cc" /><path
         style="fill:none;stroke:#030203;stroke-width:7.83;stroke-linecap:butt;stroke-dasharray:none;stroke-opacity:1;paint-order:markers fill stroke"
         d="m 477.84251,130.08667 15,15"
         id="path6"
         sodipodi:nodetypes="cc" /><path
         id="circle2"
         style="fill:none;stroke:#030203;stroke-width:10.4494;stroke-opacity:1;paint-order:markers fill stroke"
         d="m 499.62235,149.4053 a 2.3025272,2.3025272 0 0 1 -2.30253,2.30253 2.3025272,2.3025272 0 0 1 -2.30252,-2.30253 2.3025272,2.3025272 0 0 1 2.30252,-2.30252 2.3025272,2.3025272 0 0 1 2.30253,2.30252 z" /><path
         style="fill:none;stroke:#030203;stroke-width:7.83;stroke-linecap:round;stroke-dasharray:none;stroke-dashoffset:0;stroke-opacity:1;marker-start:url(#Square);marker-end:url(#ArrowWideHeavy);paint-order:markers fill stroke"
         d="m 502.39445,144.37121 30,-30"
         id="path7"
         sodipodi:nodetypes="cc" /></g><text
       xml:space="preserve"
       style="font-weight:bold;font-size:64px;font-family:Rajdhani;-inkscape-font-specification:'Rajdhani Bold';text-align:center;letter-spacing:0px;writing-mode:lr-tb;direction:ltr;text-anchor:middle;fill:#030203;fill-opacity:1;stroke-width:7.83;paint-order:markers fill stroke"
       x="239.32616"
       y="221.17416"
       id="text1"><tspan
         sodipodi:role="line"
         id="tspan1"
         x="239.32616"
         y="221.17416"
         style="font-style:normal;font-variant:normal;font-weight:normal;font-stretch:normal;font-size:64px;font-family:'Do Hyeon';-inkscape-font-specification:'Do Hyeon';letter-spacing:0px;fill:#030203;fill-opacity:1">trak.im</tspan></text></g></svg>
